<svg xmlns="http://www.w3.org/2000/svg" width="54" height="54" viewBox="0 0 54 54">
  <metadata><?xpacket begin="﻿" id="W5M0MpCehiHzreSzNTczkc9d"?>
<x:xmpmeta xmlns:x="adobe:ns:meta/" x:xmptk="Adobe XMP Core 5.6-c138 79.159824, 2016/09/14-01:09:01        ">
   <rdf:RDF xmlns:rdf="http://www.w3.org/1999/02/22-rdf-syntax-ns#">
      <rdf:Description rdf:about=""/>
   </rdf:RDF>
</x:xmpmeta>
                                                                                                    
                                                                                                    
                                                                                                    
                                                                                                    
                                                                                                    
                                                                                                    
                                                                                                    
                                                                                                    
                                                                                                    
                                                                                                    
                                                                                                    
                                                                                                    
                                                                                                    
                                                                                                    
                                                                                                    
                                                                                                    
                                                                                                    
                                                                                                    
                                                                                                    
                                                                                                    
                           
<?xpacket end="w"?></metadata>
<defs>
    <style>
      .cls-1 {
        fill: #faf5f2;
        fill-rule: evenodd;
      }
    </style>
  </defs>
  <path id="ICO_Settings" data-name="ICO Settings" class="cls-1" d="M25.085,12l-0.7,4.442a10.861,10.861,0,0,0-3,1.208l-3.663-2.611-2.65,2.65,2.572,3.663a10.941,10.941,0,0,0-1.247,3l-4.4.74V28.83l4.4,0.779a10.942,10.942,0,0,0,1.247,3l-2.611,3.663,2.65,2.65,3.663-2.572a10.859,10.859,0,0,0,3,1.208L25.085,42h3.741l0.818-4.442a10.7,10.7,0,0,0,2.961-1.247l3.7,2.611,2.65-2.65-2.65-3.663a10.916,10.916,0,0,0,1.247-2.962L42,28.83V25.089l-4.443-.74a10.914,10.914,0,0,0-1.247-2.962l2.611-3.7-2.65-2.65-3.663,2.65a11.033,11.033,0,0,0-3-1.247L28.826,12H25.085Zm1.909,6.858A8.145,8.145,0,1,1,18.85,27,8.147,8.147,0,0,1,26.994,18.854Zm0,1.987A6.157,6.157,0,1,0,33.151,27,6.17,6.17,0,0,0,26.994,20.841Zm-0.039,3.585a2.572,2.572,0,1,1,0,5.144A2.572,2.572,0,0,1,26.955,24.426Z"/>
</svg>
