<svg xmlns="http://www.w3.org/2000/svg" width="54" height="54" viewBox="0 0 54 54">
  <metadata><?xpacket begin="﻿" id="W5M0MpCehiHzreSzNTczkc9d"?>
<x:xmpmeta xmlns:x="adobe:ns:meta/" x:xmptk="Adobe XMP Core 5.6-c138 79.159824, 2016/09/14-01:09:01        ">
   <rdf:RDF xmlns:rdf="http://www.w3.org/1999/02/22-rdf-syntax-ns#">
      <rdf:Description rdf:about=""/>
   </rdf:RDF>
</x:xmpmeta>
                                                                                                    
                                                                                                    
                                                                                                    
                                                                                                    
                                                                                                    
                                                                                                    
                                                                                                    
                                                                                                    
                                                                                                    
                                                                                                    
                                                                                                    
                                                                                                    
                                                                                                    
                                                                                                    
                                                                                                    
                                                                                                    
                                                                                                    
                                                                                                    
                                                                                                    
                                                                                                    
                           
<?xpacket end="w"?></metadata>
<defs>
    <style>
      .cls-1 {
        fill: #fffaf7;
        fill-rule: evenodd;
      }
    </style>
  </defs>
  <path id="ICO_Sell_BTC" data-name="ICO Sell BTC" class="cls-1" d="M19.636,28.86c-1.6,0-3.012.573-8.259,2.94a0.645,0.645,0,0,0-.32.84l3.4,7.54a0.739,0.739,0,0,0,.38.38,0.64,0.64,0,0,0,.5-0.06l1.74-1.14a1.61,1.61,0,0,1,2.1-.08L20.536,40c1.6,0.832,3.759,1.98,4.4,2.3a5.715,5.715,0,0,0,2.56.7,4.851,4.851,0,0,0,2.88-1.02c0.767-.513,10.126-6.605,10.959-7.18a3.244,3.244,0,0,0,1.66-2.16c0.063-1.792-1.665-2.24-3.2-1.28l-6.859,4.6a4.708,4.708,0,0,1-2.68.58H26.415a17.526,17.526,0,0,1-3.9-.64,0.285,0.285,0,0,1-.2-0.38,0.268,0.268,0,0,1,.38-0.2h0.08a16.656,16.656,0,0,0,3.84.64h3.639a1.919,1.919,0,0,0,1.16-.32,1.783,1.783,0,0,0,.56-0.64c0-.065.08-0.057,0.08-0.12V34.8a1.32,1.32,0,0,0,.06-0.5,1.759,1.759,0,0,0-1.92-1.6,19.3,19.3,0,0,1-3.579-.64,8.839,8.839,0,0,1-1.36-.52,4.683,4.683,0,0,1-.64-0.58A5.841,5.841,0,0,0,19.636,28.86Zm13.878,0.06a3.749,3.749,0,0,0-2.1.7c-0.447.255-2.367,1.477-3.52,2.18a11.443,11.443,0,0,0,2.36.32,3.447,3.447,0,0,1,1.22.26l4.16-2.82A4.3,4.3,0,0,0,33.514,28.92Zm4.219,0.64a4.681,4.681,0,0,0-2.48.96l-3.2,2.18a2.114,2.114,0,0,1,.76,1.6,2.276,2.276,0,0,1-.38,1.22l0.06-.08,0.06-.06,7.039-4.66A1.874,1.874,0,0,0,37.733,29.56ZM24.8,11a7.227,7.227,0,1,0,7.226,7.227A7.194,7.194,0,0,0,24.8,11Zm4.177,0.1a8.287,8.287,0,0,1,4.1,7.124,8.185,8.185,0,0,1-4.1,7.124A7.174,7.174,0,0,0,28.974,11.1Zm3.28,0a8.288,8.288,0,0,1,4.1,7.124,8.186,8.186,0,0,1-4.1,7.124A7.174,7.174,0,0,0,32.254,11.1Zm-8.02,2.87h1.05v0.9a3.712,3.712,0,0,1,1.563.333l-0.333,1.23a2.767,2.767,0,0,0-1.563-.41c-0.657,0-.9.317-0.9,0.564,0,0.327.41,0.57,1.23,0.9,1.23,0.41,1.717.99,1.717,1.973a1.726,1.726,0,0,1-1.717,1.973v1.051h-1.05V21.507a5,5,0,0,1-1.819-.41l0.333-1.23a3.525,3.525,0,0,0,1.717.487,0.827,0.827,0,0,0,1-.641c0-.41-0.333-0.676-1.153-0.923-1.147-.41-1.9-0.881-1.9-1.948a2.025,2.025,0,0,1,1.819-1.9V13.973Z"/>
</svg>
