<svg xmlns="http://www.w3.org/2000/svg" width="54" height="54" viewBox="0 0 54 54">
  <metadata><?xpacket begin="﻿" id="W5M0MpCehiHzreSzNTczkc9d"?>
<x:xmpmeta xmlns:x="adobe:ns:meta/" x:xmptk="Adobe XMP Core 5.6-c138 79.159824, 2016/09/14-01:09:01        ">
   <rdf:RDF xmlns:rdf="http://www.w3.org/1999/02/22-rdf-syntax-ns#">
      <rdf:Description rdf:about=""/>
   </rdf:RDF>
</x:xmpmeta>
                                                                                                    
                                                                                                    
                                                                                                    
                                                                                                    
                                                                                                    
                                                                                                    
                                                                                                    
                                                                                                    
                                                                                                    
                                                                                                    
                                                                                                    
                                                                                                    
                                                                                                    
                                                                                                    
                                                                                                    
                                                                                                    
                                                                                                    
                                                                                                    
                                                                                                    
                                                                                                    
                           
<?xpacket end="w"?></metadata>
<defs>
    <style>
      .cls-1 {
        fill: #fffaf7;
        fill-rule: evenodd;
      }
    </style>
  </defs>
  <path id="ICO_Buy_BTC" data-name="ICO Buy BTC" class="cls-1" d="M27.688,12l-7.326,7,0.046,0.044H20.316l0.737,2.818H41.188l-2.811,9.864H21.468l-3.87-14.8a2.9,2.9,0,0,0-2.857-2.114H11.47a1.411,1.411,0,1,0,0,2.818h3.271l3.87,14.8a2.9,2.9,0,0,0,2.857,2.114h16.91a2.882,2.882,0,0,0,2.811-2.07l3.824-13.43h-2.58L35.06,12l-3.686,3.523Zm8.847,22.545a4.232,4.232,0,1,0,4.423,4.227A4.352,4.352,0,0,0,36.535,34.545Zm-13.27,0a4.232,4.232,0,1,0,4.423,4.227A4.352,4.352,0,0,0,23.265,34.545Zm4.423-18.538,3.225,3.038h-6.4Zm7.372,0,3.179,3.038H35.06l-1.567-1.5Zm-11.8,21.357a1.411,1.411,0,1,1-1.475,1.409A1.424,1.424,0,0,1,23.265,37.364Zm13.27,0a1.41,1.41,0,1,1-1.474,1.409A1.425,1.425,0,0,1,36.535,37.364Z"/>
</svg>
