<svg xmlns="http://www.w3.org/2000/svg" width="54" height="54" viewBox="0 0 54 54">
  <metadata><?xpacket begin="﻿" id="W5M0MpCehiHzreSzNTczkc9d"?>
<x:xmpmeta xmlns:x="adobe:ns:meta/" x:xmptk="Adobe XMP Core 5.6-c138 79.159824, 2016/09/14-01:09:01        ">
   <rdf:RDF xmlns:rdf="http://www.w3.org/1999/02/22-rdf-syntax-ns#">
      <rdf:Description rdf:about=""/>
   </rdf:RDF>
</x:xmpmeta>
<?xpacket end="w"?></metadata>
<defs>
    <style>
      .cls-1 {
        fill: #f5f0ed;
        fill-rule: evenodd;
      }
    </style>
  </defs>
  <path id="ICO_Home" data-name="ICO Home" class="cls-1" d="M35.767,12a1.278,1.278,0,0,0-1.257,1.293v6.183l-6.637-6.83a1.266,1.266,0,0,0-1.806,0l-14.728,15.2a1.307,1.307,0,0,0,0,1.819,1.22,1.22,0,0,0,1.767,0L26.97,15.4,40.873,29.7a1.291,1.291,0,0,0,.9.4,1.206,1.206,0,0,0,.864-0.4,1.307,1.307,0,0,0,0-1.819L38.281,23.4v-10.1A1.278,1.278,0,0,0,37.024,12H35.767Zm-8.8,5.779L13.146,32.006v7.113A3.827,3.827,0,0,0,16.916,43H37.024a3.827,3.827,0,0,0,3.77-3.88V32.006ZM24.457,30.066h5.027a1.278,1.278,0,0,1,1.257,1.293v7.759a1.278,1.278,0,0,1-1.257,1.293H24.457A1.278,1.278,0,0,1,23.2,39.119V31.359A1.278,1.278,0,0,1,24.457,30.066Z"/>
</svg>
