<svg xmlns="http://www.w3.org/2000/svg" width="54" height="54" viewBox="0 0 54 54">
  <metadata><?xpacket begin="﻿" id="W5M0MpCehiHzreSzNTczkc9d"?>
<x:xmpmeta xmlns:x="adobe:ns:meta/" x:xmptk="Adobe XMP Core 5.6-c138 79.159824, 2016/09/14-01:09:01        ">
   <rdf:RDF xmlns:rdf="http://www.w3.org/1999/02/22-rdf-syntax-ns#">
      <rdf:Description rdf:about=""/>
   </rdf:RDF>
</x:xmpmeta>
                                                                                                    
                                                                                                    
                                                                                                    
                                                                                                    
                                                                                                    
                                                                                                    
                                                                                                    
                                                                                                    
                                                                                                    
                                                                                                    
                                                                                                    
                                                                                                    
                                                                                                    
                                                                                                    
                                                                                                    
                                                                                                    
                                                                                                    
                                                                                                    
                                                                                                    
                                                                                                    
                           
<?xpacket end="w"?></metadata>
<defs>
    <style>
      .cls-1 {
        fill: #fffaf7;
        fill-rule: evenodd;
      }
    </style>
  </defs>
  <path id="ICO_History" data-name="ICO History" class="cls-1" d="M15.889,11V28.111h2.444V13.444H35.444v9.778h2.444V11h-22Zm4.889,7.333v2.444h2.445V18.333H20.778Zm4.889,0v2.444H33V18.333H25.667Zm-4.889,4.889v2.444h2.445V23.222H20.778Zm4.889,0v2.444H27.5V23.222H25.667Zm3.667,1.222v2.445h1.222v2.444A6.191,6.191,0,0,0,33,34.222a6.191,6.191,0,0,0-2.445,4.889v2.444H29.333V44H44V41.555H42.778V39.111a6.191,6.191,0,0,0-2.444-4.889,6.191,6.191,0,0,0,2.444-4.889V26.889H44V24.444H29.333ZM33,26.889h7.333v2.444a3.667,3.667,0,1,1-7.333,0V26.889ZM11,29.333V33a4.892,4.892,0,0,0,4.889,4.889H28.822a8.078,8.078,0,0,1,.821-2.445H15.889A2.449,2.449,0,0,1,13.444,33V31.778H29.123a7.829,7.829,0,0,1-.4-2.444H11Zm23.222,0a2.444,2.444,0,1,0,4.889,0H34.222Zm2.445,6.111a3.6,3.6,0,0,1,3.667,3.667v2.444H39.111a2.444,2.444,0,0,0-4.889,0H33V39.111A3.6,3.6,0,0,1,36.667,35.444Z"/>
</svg>
